# xmcd
#
# Track frame offsets: 
#        150
#        11931
#        24642
#        38402
#        51567
#        64706
#        77477
#        90206
#        100944
#        111990
#        125078
#        136702
#        149851
#        161334
#        174208
#        186131
#        199440
#        213477
#        225660
#        237797
#
# Disc length: 3329 seconds
#
# Revision: 2
# Processed by: cddbd v1.5.2PL0 Copyright (c) Steve Scherf et al.
# Submitted via: ExactAudioCopy v1.4
#
DISCID=130cff14
DTITLE=Sister Rosetta Tharpe - The Absolutely Essential 3 Cd Collectio
DTITLE=n cd1
DYEAR=2016
DGENRE=Gospel
TTITLE0=The Lonesome Road
TTITLE1=Rock Me
TTITLE2=My Man And I
TTITLE3=Bring Back Those Happy Days
TTITLE4=I Looked Down The Line (And I Wondered)
TTITLE5=God Don't Like It
TTITLE6=Saviour Don't Pass Me By
TTITLE7=Sit Down
TTITLE8=There Is Something Whithin Me
TTITLE9=Stand By Me
TTITLE10=Trouble In Mind
TTITLE11=Rock Daniel
TTITLE12=Four Or Five Times
TTITLE13=Shout, Sister, Shout
TTITLE14=That's All
TTITLE15=I'm In His Care
TTITLE16=Nobody's Fault But Mine
TTITLE17=What He Done For Me
TTITLE18=I Want Jesus To Walk Around My Bedside
TTITLE19=All Over This World
EXTD=
EXTT0=
EXTT1=
EXTT2=
EXTT3=
EXTT4=
EXTT5=
EXTT6=
EXTT7=
EXTT8=
EXTT9=
EXTT10=
EXTT11=
EXTT12=
EXTT13=
EXTT14=
EXTT15=
EXTT16=
EXTT17=
EXTT18=
EXTT19=
PLAYORDER=
